{"glyphs":{"0":{"ha":953,"x_min":0,"x_max":0,"o":"m 476 1089 b 32 524 165 1089 32 796 b 476 -42 32 251 164 -42 b 921 524 789 -42 921 251 b 476 1089 921 796 788 1089 z m 476 849 b 650 525 617 849 650 626 b 476 199 650 424 617 199 b 303 525 336 199 303 424 b 476 849 303 626 336 849 z "},"1":{"ha":953,"x_min":0,"x_max":0,"o":"m 374 817 l 374 0 l 646 0 l 646 1047 l 224 1047 l 224 817 z "},"2":{"ha":953,"x_min":0,"x_max":0,"o":"m 544 231 l 707 382 b 876 717 814 479 876 567 b 472 1089 876 944 692 1089 b 64 686 225 1089 72 926 l 364 686 b 360 731 361 701 360 717 b 474 858 360 801 400 858 b 593 722 546 858 593 789 b 474 465 593 626 535 532 l 46 0 l 888 0 l 888 231 z "},"3":{"ha":953,"x_min":0,"x_max":0,"o":"m 354 746 b 465 867 353 814 396 867 b 572 761 526 867 572 825 b 453 646 572 689 522 646 l 425 646 l 425 464 b 472 472 440 468 456 472 b 617 332 549 472 617 411 b 471 192 617 247 554 192 b 325 340 385 192 325 257 l 47 340 b 167 76 44 249 104 140 b 479 -42 251 -10 360 -42 b 886 306 688 -42 886 76 b 715 569 886 413 826 540 b 825 785 792 613 825 701 b 490 1089 825 981 678 1089 b 224 999 383 1089 290 1058 b 101 746 157 939 113 856 z "},"4":{"ha":953,"x_min":0,"x_max":0,"o":"m 783 425 l 783 1047 l 426 1047 l 22 390 l 22 217 l 531 217 l 531 0 l 783 0 l 783 217 l 910 217 l 910 425 z m 531 425 l 283 425 l 528 828 l 531 828 z "},"5":{"ha":957,"x_min":0,"x_max":0,"o":"m 785 817 l 785 1047 l 240 1047 l 149 479 b 349 522 211 508 279 522 b 578 343 457 522 578 469 b 411 189 578 251 497 189 b 119 310 303 189 200 238 l 79 53 b 421 -42 181 -12 301 -42 b 726 46 525 -42 643 -21 b 861 329 813 117 861 219 b 490 704 861 546 704 721 l 404 697 l 422 817 z "},"6":{"ha":953,"x_min":0,"x_max":0,"o":"m 425 1047 l 200 753 b 32 336 110 635 32 488 b 172 49 32 228 89 118 b 471 -42 253 -15 369 -42 b 921 354 710 -42 921 97 b 585 722 921 546 790 722 b 439 690 531 722 486 711 l 436 693 l 733 1047 z m 469 172 b 297 346 375 172 297 250 b 469 517 297 440 375 517 b 638 346 565 517 638 440 b 469 172 638 250 565 172 z "},"7":{"ha":953,"x_min":0,"x_max":0,"o":"m 536 817 l 58 0 l 357 0 l 958 1047 l 99 1047 l 99 817 z "},"8":{"ha":953,"x_min":0,"x_max":0,"o":"m 476 900 b 592 782 540 900 592 847 b 476 664 592 717 540 664 b 361 782 413 664 361 717 b 476 900 361 847 413 900 z m 476 440 b 601 310 546 440 601 382 b 476 182 601 239 546 182 b 351 310 407 182 351 239 b 476 440 351 382 407 440 z m 476 1089 b 119 790 297 1089 119 990 b 285 553 119 679 189 585 l 285 550 b 76 275 160 508 76 413 b 476 -42 76 58 296 -42 b 876 275 657 -42 876 58 b 668 550 876 413 793 508 l 668 553 b 833 790 764 585 833 679 b 476 1089 833 990 656 1089 z "},"9":{"ha":953,"x_min":0,"x_max":0,"o":"m 529 0 l 753 293 b 921 710 843 413 921 558 b 781 999 921 819 865 931 b 482 1089 700 1064 583 1089 b 32 693 243 1089 32 950 b 368 324 32 500 163 324 b 515 356 424 324 468 335 l 518 353 l 219 0 z m 483 874 b 657 701 579 874 657 797 b 483 529 657 606 579 529 b 315 701 388 529 315 606 b 483 874 315 797 388 874 z "}," ":{"ha":476,"x_min":0,"x_max":0,"o":""}," ":{"ha":476,"x_min":0,"x_max":0,"o":""},"!":{"ha":533,"x_min":0,"x_max":0,"o":"m 267 297 b 104 135 176 297 104 225 b 267 -28 104 46 176 -28 b 429 135 357 -28 429 46 b 267 297 429 225 357 297 z m 136 356 l 399 356 l 399 1047 l 136 1047 z "},"\"":{"ha":694,"x_min":0,"x_max":0,"o":"m 65 1047 l 103 588 l 264 588 l 301 1047 z m 393 1047 l 431 588 l 592 588 l 629 1047 z "},"#":{"ha":953,"x_min":0,"x_max":0,"o":"m 368 1008 l 314 726 l 151 726 l 151 569 l 285 569 l 251 397 l 94 397 l 94 240 l 221 240 l 175 0 l 322 0 l 368 240 l 508 240 l 463 0 l 610 0 l 656 240 l 819 240 l 819 397 l 689 397 l 722 569 l 858 569 l 858 726 l 747 726 l 801 1008 l 656 1008 l 601 726 l 461 726 l 515 1008 z m 432 569 l 576 569 l 540 397 l 399 397 z "},"$":{"ha":953,"x_min":0,"x_max":0,"o":"m 94 121 b 258 29 140 78 200 51 b 438 -6 317 7 376 -6 l 438 -171 l 567 -171 l 567 3 b 858 342 747 47 858 147 b 557 646 858 535 715 593 b 421 754 508 663 421 690 b 539 832 421 810 478 832 b 717 764 604 832 667 804 l 819 965 b 567 1046 744 1014 654 1038 l 567 1214 l 438 1214 l 438 1046 b 154 719 268 1035 154 883 b 372 447 154 550 264 488 b 590 315 482 407 590 393 b 460 214 590 247 518 214 b 208 331 371 214 272 271 z "},"%":{"ha":1354,"x_min":0,"x_max":0,"o":"m 313 1061 b 26 807 157 1061 26 974 b 313 549 26 638 153 549 b 599 807 472 549 599 638 b 313 1061 599 974 468 1061 z m 313 922 b 431 804 378 922 431 869 b 313 688 431 739 378 688 b 194 804 247 688 194 739 b 313 922 194 869 247 922 z m 913 1047 l 304 0 l 440 0 l 1049 1047 z m 1042 499 b 756 244 886 499 756 411 b 1042 -14 756 75 882 -14 b 1328 244 1201 -14 1328 75 b 1042 499 1328 411 1197 499 z m 1042 360 b 1160 242 1107 360 1160 307 b 1042 125 1160 176 1107 125 b 924 242 976 125 924 176 b 1042 360 924 307 976 360 z "},"&":{"ha":1178,"x_min":0,"x_max":0,"o":"m 599 260 b 453 217 556 235 504 217 b 335 313 397 217 335 250 b 433 438 335 371 389 410 z m 546 665 b 464 804 513 703 464 753 b 551 890 464 856 503 890 b 643 793 607 890 643 846 b 546 665 643 736 593 692 z m 838 0 l 1178 0 l 943 247 l 956 260 l 1088 401 l 933 549 b 796 400 894 493 847 446 l 664 539 b 858 790 772 593 858 660 b 531 1075 858 969 697 1075 b 206 788 363 1075 206 968 b 281 606 206 701 247 651 l 303 575 l 278 564 b 53 272 146 506 53 429 b 389 -28 53 81 208 -28 b 747 97 515 -28 643 26 z "},"’":{"ha":517,"x_min":0,"x_max":0,"o":"m 254 1047 l 74 588 l 235 588 l 490 1047 z "},"(":{"ha":489,"x_min":0,"x_max":0,"o":"m 269 1097 b 68 397 133 910 68 626 b 269 -333 68 163 124 -143 l 421 -247 b 261 381 310 -79 261 182 b 421 1011 261 594 307 828 z "},")":{"ha":489,"x_min":0,"x_max":0,"o":"m 68 1011 b 228 381 182 828 228 594 b 68 -247 228 182 179 -79 l 219 -333 b 421 397 365 -143 421 163 b 219 1097 421 626 356 910 z "},"*":{"ha":671,"x_min":0,"x_max":0,"o":"m 272 1047 l 279 903 l 158 979 l 94 874 l 224 803 l 99 733 l 161 628 l 279 703 l 271 564 l 396 564 l 390 704 l 513 625 l 575 729 l 444 801 l 576 871 l 514 976 l 390 899 l 397 1047 z "},"+":{"ha":953,"x_min":0,"x_max":0,"o":"m 372 461 l 121 461 l 121 253 l 372 253 l 372 0 l 581 0 l 581 253 l 832 253 l 832 461 l 581 461 l 581 713 l 372 713 z "},",":{"ha":476,"x_min":0,"x_max":0,"o":"m 211 265 l 31 -196 l 193 -196 l 449 265 z "},"-":{"ha":544,"x_min":0,"x_max":0,"o":"m 74 550 l 74 342 l 471 342 l 471 550 z "},"­":{"ha":544,"x_min":0,"x_max":0,"o":"m 74 550 l 74 342 l 471 342 l 471 550 z "},".":{"ha":476,"x_min":0,"x_max":0,"o":"m 239 297 b 76 135 149 297 76 225 b 239 -28 76 46 149 -28 b 401 135 329 -28 401 46 b 239 297 401 225 329 297 z "},"/":{"ha":804,"x_min":0,"x_max":0,"o":"m 568 1153 l 38 -129 l 236 -129 l 767 1153 z "},":":{"ha":476,"x_min":0,"x_max":0,"o":"m 239 297 b 76 135 149 297 76 225 b 239 -28 76 46 149 -28 b 401 135 329 -28 401 46 b 239 297 401 225 329 297 z m 239 765 b 76 603 149 765 76 693 b 239 440 76 514 149 440 b 401 603 329 440 401 514 b 239 765 401 693 329 765 z "},";":{"ha":476,"x_min":0,"x_max":0,"o":"m 192 265 l 11 -196 l 174 -196 l 429 265 z m 303 765 b 140 603 213 765 140 693 b 303 440 140 514 213 440 b 465 603 393 440 465 514 b 303 765 465 693 393 765 z "},"<":{"ha":953,"x_min":0,"x_max":0,"o":"m 138 274 l 817 21 l 817 229 l 436 356 l 436 358 l 817 485 l 817 693 l 138 440 z "},"=":{"ha":953,"x_min":0,"x_max":0,"o":"m 121 628 l 121 419 l 832 419 l 832 628 z m 121 294 l 121 86 l 832 86 l 832 294 z "},">":{"ha":953,"x_min":0,"x_max":0,"o":"m 817 440 l 138 693 l 138 485 l 518 358 l 518 356 l 138 229 l 138 21 l 817 274 z "},"?":{"ha":826,"x_min":0,"x_max":0,"o":"m 258 350 l 513 350 l 513 449 b 764 749 654 493 764 592 b 644 989 764 840 714 931 b 401 1075 576 1047 489 1075 b 21 749 206 1075 22 960 l 297 749 b 394 854 297 808 331 854 b 496 750 453 854 496 807 b 317 613 496 658 396 613 b 258 619 297 613 278 615 z m 390 297 b 228 135 300 297 228 225 b 390 -28 228 46 300 -28 b 553 135 481 -28 553 46 b 390 297 553 225 481 297 z "},"@":{"ha":1028,"x_min":0,"x_max":0,"o":"m 389 492 b 525 651 389 568 446 651 b 625 517 593 651 635 596 b 494 364 617 447 581 364 b 389 492 426 364 389 424 z m 822 792 l 690 792 l 676 718 b 506 804 635 778 576 804 b 222 469 333 804 222 640 b 456 211 222 326 333 211 b 633 292 539 211 597 250 b 719 211 644 247 681 213 b 933 333 786 208 867 244 b 1019 629 989 407 1019 514 b 864 954 1019 761 958 871 b 538 1075 772 1038 660 1075 b 7 524 242 1075 7 838 b 546 -28 7 206 247 -28 b 919 67 694 -28 822 17 l 806 158 b 557 103 761 131 672 103 b 138 524 319 103 138 267 b 533 944 138 767 300 944 b 906 581 746 944 918 815 b 769 339 899 460 819 344 b 753 431 729 335 746 396 z "},"A":{"ha":1085,"x_min":0,"x_max":0,"o":"m 731 182 l 799 0 l 1089 0 l 694 1047 l 397 1047 l -6 0 l 283 0 l 356 182 z m 657 390 l 431 390 l 543 724 l 546 724 z "},"B":{"ha":940,"x_min":0,"x_max":0,"o":"m 361 433 l 389 433 b 613 319 478 433 613 446 b 396 208 613 204 476 208 l 361 208 z m 508 0 b 888 292 700 0 888 72 b 674 558 888 438 824 539 l 674 561 b 789 775 758 604 789 681 b 478 1047 789 975 664 1047 l 89 1047 l 89 0 z m 361 839 l 381 839 b 539 738 454 839 539 833 b 392 636 539 649 464 636 l 361 636 z "},"C":{"ha":917,"x_min":0,"x_max":0,"o":"m 838 1022 b 589 1075 757 1056 676 1075 b 190 906 442 1075 293 1011 b 36 522 90 803 36 665 b 204 126 36 367 89 231 b 597 -28 313 28 451 -28 b 838 21 682 -28 747 -7 l 838 347 b 603 236 781 279 692 236 b 319 521 433 236 319 356 b 599 811 319 683 432 811 b 838 696 692 811 782 771 z "},"D":{"ha":1044,"x_min":0,"x_max":0,"o":"m 89 0 l 475 0 b 1007 524 765 0 1007 229 b 475 1047 1007 818 767 1047 l 89 1047 z m 361 817 l 425 817 b 724 524 600 817 724 711 b 422 231 724 319 585 231 l 361 231 z "},"E":{"ha":764,"x_min":0,"x_max":0,"o":"m 685 817 l 685 1047 l 89 1047 l 89 0 l 685 0 l 685 231 l 361 231 l 361 411 l 668 411 l 668 642 l 361 642 l 361 817 z "},"F":{"ha":753,"x_min":0,"x_max":0,"o":"m 690 817 l 690 1047 l 89 1047 l 89 0 l 361 0 l 361 411 l 660 411 l 660 642 l 361 642 l 361 817 z "},"G":{"ha":1169,"x_min":0,"x_max":0,"o":"m 593 585 l 593 371 l 815 371 b 596 189 804 250 714 189 b 319 517 417 189 319 354 b 592 847 319 676 413 847 b 818 681 701 847 781 781 l 1076 789 b 604 1082 986 985 819 1082 b 36 518 267 1082 36 858 b 594 -35 36 189 265 -35 b 1026 171 769 -35 924 28 b 1133 585 1119 301 1131 432 z "},"H":{"ha":1115,"x_min":0,"x_max":0,"o":"m 361 643 l 361 1047 l 89 1047 l 89 0 l 361 0 l 361 429 l 754 429 l 754 0 l 1026 0 l 1026 1047 l 754 1047 l 754 643 z "},"I":{"ha":450,"x_min":0,"x_max":0,"o":"m 361 1047 l 89 1047 l 89 0 l 361 0 z "},"J":{"ha":679,"x_min":0,"x_max":0,"o":"m 324 1047 l 324 357 b 246 203 324 299 326 203 b 136 292 210 203 167 250 l -21 126 b 249 -28 42 31 132 -28 b 596 340 481 -28 596 119 l 596 1047 z "},"K":{"ha":1053,"x_min":0,"x_max":0,"o":"m 364 615 l 361 615 l 361 1047 l 89 1047 l 89 0 l 361 0 l 361 454 l 364 454 l 715 0 l 1068 0 l 614 551 l 1031 1047 l 693 1047 z "},"L":{"ha":688,"x_min":0,"x_max":0,"o":"m 361 1047 l 89 1047 l 89 0 l 688 0 l 688 231 l 361 231 z "},"M":{"ha":1365,"x_min":0,"x_max":0,"o":"m 26 0 l 297 0 l 385 603 l 388 603 l 628 0 l 736 0 l 988 603 l 990 603 l 1067 0 l 1339 0 l 1181 1047 l 910 1047 l 685 488 l 472 1047 l 204 1047 z "},"N":{"ha":1224,"x_min":0,"x_max":0,"o":"m 89 0 l 361 0 l 361 642 l 364 642 l 863 0 l 1135 0 l 1135 1047 l 863 1047 l 863 407 l 860 407 l 361 1047 l 89 1047 z "},"O":{"ha":1232,"x_min":0,"x_max":0,"o":"m 615 1082 b 36 543 314 1082 36 860 b 615 -35 36 204 279 -35 b 1194 543 951 -35 1194 204 b 615 1082 1194 860 917 1082 z m 615 818 b 911 542 778 818 911 686 b 615 229 911 361 778 229 b 319 542 453 229 319 361 b 615 818 319 686 453 818 z "},"P":{"ha":918,"x_min":0,"x_max":0,"o":"m 89 0 l 361 0 l 361 347 l 515 347 b 886 703 753 347 886 456 b 506 1047 886 943 731 1047 l 89 1047 z m 361 828 l 407 828 b 603 694 513 828 603 826 b 407 567 603 567 506 567 l 361 567 z "},"Q":{"ha":1232,"x_min":0,"x_max":0,"o":"m 789 442 l 532 410 l 700 243 b 617 229 672 233 644 229 b 319 542 454 229 319 361 b 617 818 319 686 454 818 b 911 519 781 818 911 676 b 863 365 911 467 894 410 z m 1236 -26 l 1060 153 b 1194 521 1147 261 1194 382 b 615 1082 1194 861 942 1082 b 36 543 314 1082 36 860 b 615 -35 36 204 279 -35 b 903 33 728 -35 822 -15 l 986 -65 z "},"R":{"ha":944,"x_min":0,"x_max":0,"o":"m 631 429 b 860 725 779 456 860 581 b 496 1047 860 949 703 1047 l 89 1047 l 89 0 l 361 0 l 361 403 l 364 403 l 621 0 l 960 0 z m 361 839 l 388 839 b 576 708 476 839 576 822 b 388 578 576 594 476 578 l 361 578 z "},"S":{"ha":856,"x_min":0,"x_max":0,"o":"m 772 989 b 444 1075 679 1042 550 1075 b 83 724 235 1075 83 936 b 367 428 83 521 196 476 b 532 308 425 411 532 385 b 400 203 532 235 464 203 b 158 311 307 203 226 251 l 42 92 b 410 -28 149 17 278 -28 b 707 71 515 -28 625 1 b 815 353 790 142 815 249 b 557 639 815 522 703 596 l 488 660 b 367 760 440 675 367 699 b 483 847 367 818 433 847 b 664 778 550 847 614 819 z "},"T":{"ha":740,"x_min":0,"x_max":0,"o":"m 506 817 l 731 817 l 731 1047 l 8 1047 l 8 817 l 233 817 l 233 0 l 506 0 z "},"U":{"ha":1081,"x_min":0,"x_max":0,"o":"m 725 1047 l 725 496 b 540 211 725 360 715 211 b 356 496 365 211 356 360 l 356 1047 l 83 1047 l 83 458 b 193 89 83 324 89 190 b 540 -28 281 3 418 -28 b 888 89 663 -28 800 3 b 997 458 992 190 997 324 l 997 1047 z "},"V":{"ha":1057,"x_min":0,"x_max":0,"o":"m 275 1047 l -21 1047 l 419 0 l 631 0 l 1078 1047 l 782 1047 l 528 411 z "},"W":{"ha":1551,"x_min":0,"x_max":0,"o":"m 263 1047 l -21 1047 l 292 0 l 568 0 l 774 607 l 776 607 l 960 0 l 1238 0 l 1572 1047 l 1289 1047 l 1092 371 l 1089 371 l 883 1047 l 667 1047 l 447 371 l 444 371 z "},"X":{"ha":1096,"x_min":0,"x_max":0,"o":"m 399 560 l -11 0 l 318 0 l 558 342 l 778 0 l 1106 0 l 718 560 l 1053 1047 l 718 1047 l 558 776 l 399 1047 l 64 1047 z "},"Y":{"ha":992,"x_min":0,"x_max":0,"o":"m 360 503 l 360 0 l 632 0 l 632 503 l 1018 1047 l 692 1047 l 496 763 l 300 1047 l -26 1047 z "},"Z":{"ha":982,"x_min":0,"x_max":0,"o":"m 474 231 l 967 1047 l 100 1047 l 100 817 l 511 817 l 15 0 l 913 0 l 913 231 z "},"[":{"ha":486,"x_min":0,"x_max":0,"o":"m 265 950 l 414 950 l 414 1097 l 72 1097 l 72 -333 l 414 -333 l 414 -186 l 265 -186 z "},"\\":{"ha":804,"x_min":0,"x_max":0,"o":"m 38 1153 l 569 0 l 767 0 l 238 1153 z "},"]":{"ha":486,"x_min":0,"x_max":0,"o":"m 221 -186 l 72 -186 l 72 -333 l 414 -333 l 414 1097 l 72 1097 l 72 950 l 221 950 z "},"^":{"ha":953,"x_min":0,"x_max":0,"o":"m 301 472 l 476 846 l 651 472 l 810 565 l 560 1089 l 393 1089 l 143 565 z "},"_":{"ha":694,"x_min":0,"x_max":0,"o":"m 694 -174 l 694 -104 l 0 -104 l 0 -174 z "},"‘":{"ha":517,"x_min":0,"x_max":0,"o":"m 263 588 l 443 1047 l 282 1047 l 26 588 z "},"a":{"ha":947,"x_min":0,"x_max":0,"o":"m 456 517 b 618 356 558 517 618 443 b 456 196 618 265 558 196 b 293 356 353 196 293 265 b 456 517 293 443 353 517 z m 863 713 l 610 713 l 610 643 b 389 736 557 706 471 736 b 32 357 178 736 32 561 b 392 -24 32 153 181 -24 b 607 79 475 -24 563 8 l 610 79 l 610 0 l 863 0 z "},"b":{"ha":947,"x_min":0,"x_max":0,"o":"m 75 0 l 328 0 l 328 79 l 331 79 b 546 -24 376 8 463 -24 b 906 357 758 -24 906 151 b 549 736 906 561 760 736 b 328 643 467 736 382 706 l 328 1153 l 75 1153 z m 482 517 b 644 356 585 517 644 443 b 482 196 644 265 585 196 b 319 356 379 196 319 265 b 482 517 319 443 379 517 z "},"c":{"ha":671,"x_min":0,"x_max":0,"o":"m 597 694 b 431 736 547 722 489 736 b 32 349 207 736 32 578 b 419 -24 32 133 208 -24 b 597 17 481 -24 542 -11 l 597 231 b 471 182 564 200 515 182 b 293 357 367 182 293 254 b 467 531 293 456 369 531 b 597 481 515 531 560 508 z "},"d":{"ha":947,"x_min":0,"x_max":0,"o":"m 619 0 l 872 0 l 872 1153 l 619 1153 l 619 643 b 399 736 567 706 481 736 b 42 357 188 736 42 561 b 401 -24 42 153 190 -24 b 617 79 485 -24 572 8 l 619 79 z m 465 517 b 628 356 568 517 628 443 b 465 196 628 265 568 196 b 303 356 363 196 303 265 b 465 517 303 443 363 517 z "},"e":{"ha":847,"x_min":0,"x_max":0,"o":"m 288 460 b 438 572 303 533 364 572 b 581 460 506 572 568 528 z m 815 340 b 425 736 815 583 672 736 b 31 356 193 736 31 593 b 443 -24 31 110 207 -24 b 806 221 606 -24 765 53 l 563 221 b 442 156 535 174 496 156 b 283 314 338 156 283 211 l 815 314 z "},"f":{"ha":539,"x_min":0,"x_max":0,"o":"m 361 504 l 538 504 l 538 713 l 361 713 l 361 828 b 449 947 361 908 383 947 b 538 924 482 947 508 936 l 538 1142 b 429 1167 503 1160 468 1167 b 181 1053 333 1167 243 1126 b 108 803 111 974 108 901 l 108 713 l 19 713 l 19 504 l 108 504 l 108 0 l 361 0 z "},"g":{"ha":940,"x_min":0,"x_max":0,"o":"m 865 713 l 613 713 l 613 638 l 610 638 b 400 736 560 708 483 736 b 35 350 182 736 35 558 b 386 -14 35 144 178 -14 b 613 83 481 -14 547 18 l 613 50 b 450 -154 613 -65 586 -154 b 378 -137 426 -154 400 -149 b 331 -83 356 -126 338 -108 l 47 -83 b 453 -356 69 -271 289 -356 b 865 69 715 -356 865 -233 z m 458 522 b 621 361 561 522 621 449 b 458 201 621 271 561 201 b 296 361 356 201 296 271 b 458 522 296 449 356 522 z "},"h":{"ha":918,"x_min":0,"x_max":0,"o":"m 83 1153 l 83 0 l 336 0 l 336 365 b 468 535 336 449 368 535 b 582 365 569 535 582 449 l 582 0 l 835 0 l 835 436 b 567 736 835 617 747 736 b 339 622 468 736 397 700 l 336 622 l 336 1153 z "},"i":{"ha":419,"x_min":0,"x_max":0,"o":"m 336 713 l 83 713 l 83 0 l 336 0 z m 210 1128 b 68 986 132 1128 68 1064 b 210 844 68 908 132 844 b 351 986 288 844 351 908 b 210 1128 351 1064 288 1128 z "},"j":{"ha":419,"x_min":0,"x_max":0,"o":"m 336 713 l 83 713 l 83 -356 l 336 -356 z m 210 1128 b 68 986 132 1128 68 1064 b 210 844 68 908 132 844 b 351 986 288 844 351 908 b 210 1128 351 1064 288 1128 z "},"k":{"ha":956,"x_min":0,"x_max":0,"o":"m 336 1153 l 83 1153 l 83 0 l 336 0 l 336 290 l 613 0 l 967 0 l 588 383 l 944 713 l 599 713 l 336 456 z "},"l":{"ha":419,"x_min":0,"x_max":0,"o":"m 336 1153 l 83 1153 l 83 0 l 336 0 z "},"m":{"ha":1374,"x_min":0,"x_max":0,"o":"m 336 713 l 83 713 l 83 0 l 336 0 l 336 340 b 449 540 336 419 336 540 b 561 340 561 540 561 419 l 561 0 l 814 0 l 814 340 b 935 535 814 425 818 535 b 1039 340 1042 535 1039 414 l 1039 0 l 1292 0 l 1292 454 b 1049 736 1292 618 1229 736 b 807 600 951 736 856 689 b 564 736 756 694 667 736 b 339 624 472 736 399 703 l 336 624 z "},"n":{"ha":918,"x_min":0,"x_max":0,"o":"m 336 713 l 83 713 l 83 0 l 336 0 l 336 369 b 468 535 336 458 365 535 b 582 347 593 535 582 415 l 582 0 l 835 0 l 835 440 b 567 736 835 615 758 736 b 339 621 468 736 397 707 l 336 621 z "},"o":{"ha":919,"x_min":0,"x_max":0,"o":"m 460 736 b 31 356 231 736 31 599 b 460 -24 31 113 232 -24 b 889 356 689 -24 889 114 b 460 736 889 599 689 736 z m 460 517 b 622 356 563 517 622 443 b 460 196 622 265 563 196 b 297 356 357 196 297 265 b 460 517 297 443 357 517 z "},"p":{"ha":947,"x_min":0,"x_max":0,"o":"m 328 713 l 75 713 l 75 -356 l 328 -356 l 328 68 b 549 -24 382 6 467 -24 b 906 354 760 -24 906 149 b 546 736 906 558 758 736 b 331 632 463 736 376 703 l 328 632 z m 482 517 b 644 356 585 517 644 443 b 482 196 644 265 585 196 b 319 356 379 196 319 265 b 482 517 319 443 379 517 z "},"q":{"ha":947,"x_min":0,"x_max":0,"o":"m 872 713 l 619 713 l 619 632 l 617 632 b 401 736 572 703 485 736 b 42 354 190 736 42 557 b 399 -24 42 149 186 -24 b 619 68 481 -24 567 6 l 619 -356 l 872 -356 z m 465 517 b 628 356 568 517 628 443 b 465 196 628 265 568 196 b 303 356 363 196 303 265 b 465 517 303 443 363 517 z "},"r":{"ha":629,"x_min":0,"x_max":0,"o":"m 336 713 l 83 713 l 83 0 l 336 0 l 336 288 b 511 503 336 410 371 503 b 618 479 550 503 583 499 l 618 722 l 569 722 b 339 596 471 722 388 683 l 336 596 z "},"s":{"ha":713,"x_min":0,"x_max":0,"o":"m 639 690 b 404 736 565 724 485 736 b 90 483 249 736 90 658 b 249 296 90 356 169 317 b 407 217 328 275 407 272 b 328 163 407 178 360 163 b 128 235 265 163 179 199 l 36 58 b 324 -24 122 6 222 -24 b 660 242 489 -24 660 54 b 453 453 660 374 571 429 b 339 515 418 460 339 467 b 418 564 339 551 389 564 b 554 529 461 564 515 550 z "},"t":{"ha":500,"x_min":0,"x_max":0,"o":"m 360 504 l 503 504 l 503 713 l 360 713 l 360 926 l 107 926 l 107 713 l 25 713 l 25 504 l 107 504 l 107 0 l 360 0 z "},"u":{"ha":915,"x_min":0,"x_max":0,"o":"m 79 713 l 79 283 b 458 -24 79 49 244 -24 b 838 283 672 -24 838 49 l 838 713 l 585 713 l 585 332 b 458 178 585 242 563 178 b 332 332 354 178 332 242 l 332 713 z "},"v":{"ha":865,"x_min":0,"x_max":0,"o":"m 263 713 l -21 713 l 353 0 l 514 0 l 886 713 l 603 713 l 433 347 z "},"w":{"ha":1383,"x_min":0,"x_max":0,"o":"m 260 713 l -21 713 l 351 0 l 515 0 l 692 390 l 868 0 l 1032 0 l 1404 713 l 1125 713 l 946 326 l 767 713 l 617 713 l 438 326 z "},"x":{"ha":989,"x_min":0,"x_max":0,"o":"m 335 386 l -21 0 l 311 0 l 494 211 l 678 0 l 1010 0 l 654 386 l 949 713 l 622 713 l 494 565 l 367 713 l 46 713 z "},"y":{"ha":908,"x_min":0,"x_max":0,"o":"m 324 97 l 81 -356 l 364 -356 l 935 713 l 647 713 l 461 347 l 271 713 l -21 713 z "},"z":{"ha":776,"x_min":0,"x_max":0,"o":"m 433 210 l 767 713 l 56 713 l 56 503 l 346 503 l 11 0 l 733 0 l 733 210 z "},"{":{"ha":489,"x_min":0,"x_max":0,"o":"m 50 315 b 147 228 78 315 147 325 l 147 -124 b 304 -333 147 -269 254 -333 l 439 -333 l 439 -167 l 404 -167 b 340 -85 340 -167 340 -125 l 340 224 b 207 386 340 371 250 381 l 207 389 b 340 536 250 396 340 418 l 340 849 b 404 931 340 888 340 931 l 439 931 l 439 1097 l 304 1097 b 147 885 254 1097 147 1033 l 147 533 b 50 460 147 454 78 460 z "},"|":{"ha":804,"x_min":0,"x_max":0,"o":"m 507 1092 l 299 1092 l 299 -297 l 507 -297 z "},"}":{"ha":489,"x_min":0,"x_max":0,"o":"m 439 460 b 342 533 411 460 342 454 l 342 885 b 185 1097 342 1033 235 1097 l 50 1097 l 50 931 l 85 931 b 149 849 149 931 149 888 l 149 536 b 282 389 149 418 239 396 l 282 386 b 149 224 239 381 149 371 l 149 -85 b 85 -167 149 -125 149 -167 l 50 -167 l 50 -333 l 185 -333 b 342 -124 235 -333 342 -269 l 342 228 b 439 315 342 325 411 315 z "},"~":{"ha":953,"x_min":0,"x_max":0,"o":"m 726 518 b 640 401 713 481 678 401 b 490 471 599 401 535 436 b 313 549 438 511 369 549 b 68 331 199 549 126 403 l 225 197 b 315 314 244 242 279 314 b 471 233 357 314 408 269 b 642 167 519 206 574 167 b 885 383 757 167 836 301 z "},"¡":{"ha":533,"x_min":0,"x_max":0,"o":"m 267 739 b 104 576 176 739 104 667 b 267 414 104 488 176 414 b 429 576 357 414 429 488 b 267 739 429 667 357 739 z m 136 354 l 136 -337 l 399 -337 l 399 354 z "},"¢":{"ha":953,"x_min":0,"x_max":0,"o":"m 547 14 l 676 14 l 676 161 b 757 183 704 164 731 174 l 757 410 b 626 357 725 372 675 357 b 460 528 531 357 460 433 b 635 697 460 628 536 697 b 757 644 682 697 724 676 l 757 871 l 676 894 l 676 1032 l 547 1032 l 547 903 b 196 524 342 883 196 732 b 547 151 196 329 353 160 z "},"£":{"ha":953,"x_min":0,"x_max":0,"o":"m 664 417 l 664 522 l 447 522 b 390 706 411 575 390 638 b 522 853 390 785 438 853 b 649 721 593 853 649 790 l 649 672 l 918 672 b 532 1067 915 944 807 1067 b 239 965 424 1067 319 1043 b 126 700 167 896 126 800 b 176 522 126 636 144 574 l 26 522 l 26 417 l 250 417 b 275 246 283 365 303 306 b 36 0 144 244 58 118 l 217 0 b 304 51 226 38 269 51 b 481 17 354 51 432 31 b 672 -22 546 -1 604 -22 b 928 246 836 -22 917 93 l 758 246 b 688 178 758 203 731 178 b 482 225 631 178 536 206 l 467 231 b 467 417 485 279 483 371 z "},"⁄":{"ha":269,"x_min":0,"x_max":0,"o":"m 371 1047 l -237 0 l -101 0 l 507 1047 z "},"∕":{"ha":269,"x_min":0,"x_max":0,"o":"m 371 1047 l -237 0 l -101 0 l 507 1047 z "},"¥":{"ha":953,"x_min":0,"x_max":0,"o":"m 879 619 l 879 725 l 753 725 l 968 1047 l 660 1047 l 476 763 l 293 1047 l -15 1047 l 199 725 l 71 725 l 71 619 l 268 619 l 347 503 l 71 503 l 71 397 l 349 397 l 349 0 l 604 0 l 604 397 l 879 397 l 879 503 l 604 503 l 682 619 z "},"ƒ":{"ha":953,"x_min":0,"x_max":0,"o":"m 654 701 l 668 778 b 771 929 679 839 690 929 b 879 888 808 929 849 910 l 919 1106 b 739 1153 867 1142 801 1153 b 514 1057 650 1153 574 1124 b 428 851 458 996 443 931 l 400 701 l 278 701 l 261 596 l 381 596 l 322 272 b 275 72 311 211 297 128 b 132 -22 246 3 206 -22 b 33 -10 99 -22 65 -15 l -8 -239 l 139 -251 b 447 -118 267 -262 365 -224 b 565 208 522 -21 544 89 l 636 596 l 789 596 l 807 701 z "},"§":{"ha":953,"x_min":0,"x_max":0,"o":"m 396 375 b 292 479 351 397 292 421 b 335 554 292 510 308 539 l 563 439 b 664 335 606 418 664 390 b 628 260 664 308 649 276 z m 782 818 b 453 1075 774 1003 618 1075 b 136 810 293 1075 136 986 b 199 647 136 756 158 686 b 79 421 132 592 79 511 b 242 192 79 308 146 239 l 461 85 b 578 -29 510 61 578 36 b 472 -122 578 -89 529 -122 b 336 4 404 -122 333 -68 l 82 4 b 467 -319 72 -214 274 -319 b 829 -21 649 -319 829 -222 b 758 160 829 43 807 117 b 875 378 826 214 875 289 b 671 631 875 522 786 574 l 517 708 b 388 831 464 735 388 761 b 465 901 388 875 424 901 b 564 818 517 901 553 867 z "},"¤":{"ha":953,"x_min":0,"x_max":0,"o":"m 68 211 l 154 124 l 246 215 b 481 139 306 165 390 139 b 708 214 567 139 653 167 l 801 122 l 885 213 l 793 304 b 871 528 840 357 871 442 b 796 761 871 614 840 701 l 882 849 l 796 935 l 703 842 b 481 914 650 886 565 914 b 247 842 394 914 306 886 l 154 935 l 68 847 l 160 754 b 90 525 114 699 90 611 b 160 303 90 439 117 360 z m 481 706 b 663 521 585 706 663 624 b 481 347 663 415 583 347 b 299 521 378 347 299 415 b 481 706 299 624 376 706 z "},"'":{"ha":347,"x_min":0,"x_max":0,"o":"m 56 1047 l 93 588 l 254 588 l 292 1047 z "},"“":{"ha":872,"x_min":0,"x_max":0,"o":"m 618 588 l 799 1047 l 638 1047 l 382 588 z m 263 588 l 443 1047 l 282 1047 l 26 588 z "},"«":{"ha":838,"x_min":0,"x_max":0,"o":"m 585 444 l 760 690 l 621 786 l 382 444 l 621 103 l 764 203 z m 239 444 l 414 690 l 275 786 l 36 444 l 275 103 l 418 203 z "},"‹":{"ha":492,"x_min":0,"x_max":0,"o":"m 239 444 l 414 690 l 275 786 l 36 444 l 275 103 l 418 203 z "},"›":{"ha":492,"x_min":0,"x_max":0,"o":"m 74 203 l 217 103 l 456 444 l 217 786 l 78 690 l 253 444 z "},"ﬁ":{"ha":943,"x_min":0,"x_max":0,"o":"m 353 504 l 529 504 l 529 713 l 353 713 l 353 828 b 440 947 353 908 375 947 b 529 924 474 947 500 936 l 529 1142 b 421 1167 494 1160 460 1167 b 172 1053 325 1167 235 1126 b 100 803 103 974 100 901 l 100 713 l 11 713 l 11 504 l 100 504 l 100 0 l 353 0 z m 860 713 l 607 713 l 607 0 l 860 0 z m 733 1128 b 592 986 656 1128 592 1064 b 733 844 592 908 656 844 b 875 986 811 844 875 908 b 733 1128 875 1064 811 1128 z "},"ﬂ":{"ha":958,"x_min":0,"x_max":0,"o":"m 875 1153 l 622 1153 l 622 0 l 875 0 z m 353 504 l 529 504 l 529 713 l 353 713 l 353 828 b 440 947 353 908 375 947 b 529 924 474 947 500 936 l 529 1142 b 421 1167 494 1160 460 1167 b 172 1053 325 1167 235 1126 b 100 803 103 974 100 901 l 100 713 l 11 713 l 11 504 l 100 504 l 100 0 l 353 0 z "},"–":{"ha":694,"x_min":0,"x_max":0,"o":"m 0 550 l 0 342 l 694 342 l 694 550 z "},"†":{"ha":953,"x_min":0,"x_max":0,"o":"m 361 1047 l 361 763 l 117 763 l 117 563 l 361 563 l 361 -250 l 592 -250 l 592 563 l 838 563 l 838 763 l 592 763 l 592 1047 z "},"‡":{"ha":953,"x_min":0,"x_max":0,"o":"m 363 1047 l 363 790 l 117 790 l 117 590 l 363 590 l 363 393 l 117 393 l 117 193 l 363 193 l 363 -249 l 593 -249 l 593 193 l 838 193 l 838 393 l 593 393 l 593 590 l 838 590 l 838 790 l 593 790 l 593 1047 z "},"·":{"ha":476,"x_min":0,"x_max":0,"o":"m 239 518 b 76 356 149 518 76 446 b 239 193 76 267 149 193 b 401 356 329 193 401 267 b 239 518 401 446 329 518 z "},"∙":{"ha":476,"x_min":0,"x_max":0,"o":"m 239 518 b 76 356 149 518 76 446 b 239 193 76 267 149 193 b 401 356 329 193 401 267 b 239 518 401 446 329 518 z "},"¶":{"ha":953,"x_min":0,"x_max":0,"o":"m 365 1047 b 67 701 201 1047 49 869 b 388 403 90 486 226 418 l 388 -236 l 528 -236 l 528 919 l 657 919 l 657 -236 l 797 -236 l 797 921 l 889 921 l 889 1047 z "},"•":{"ha":953,"x_min":0,"x_max":0,"o":"m 478 786 b 215 524 328 786 215 668 b 478 263 215 381 328 263 b 739 524 628 263 739 381 b 478 786 739 668 628 786 z "},"‚":{"ha":469,"x_min":0,"x_max":0,"o":"m 207 265 l 26 -194 l 188 -194 l 443 265 z "},"„":{"ha":825,"x_min":0,"x_max":0,"o":"m 207 265 l 26 -194 l 188 -194 l 443 265 z m 563 265 l 382 -194 l 543 -194 l 799 265 z "},"”":{"ha":872,"x_min":0,"x_max":0,"o":"m 254 1047 l 74 588 l 235 588 l 490 1047 z m 610 1047 l 429 588 l 590 588 l 846 1047 z "},"»":{"ha":838,"x_min":0,"x_max":0,"o":"m 74 203 l 217 103 l 456 444 l 217 786 l 78 690 l 253 444 z m 419 203 l 563 103 l 801 444 l 563 786 l 424 690 l 599 444 z "},"…":{"ha":1389,"x_min":0,"x_max":0,"o":"m 694 297 b 532 135 604 297 532 225 b 694 -28 532 46 604 -28 b 857 135 785 -28 857 46 b 694 297 857 225 785 297 z m 1157 297 b 994 135 1067 297 994 225 b 1157 -28 994 46 1067 -28 b 1319 135 1247 -28 1319 46 b 1157 297 1319 225 1247 297 z m 232 297 b 69 135 142 297 69 225 b 232 -28 69 46 142 -28 b 394 135 322 -28 394 46 b 232 297 394 225 322 297 z "},"‰":{"ha":2028,"x_min":0,"x_max":0,"o":"m 313 1061 b 26 807 157 1061 26 974 b 313 549 26 638 153 549 b 599 807 472 549 599 638 b 313 1061 599 974 468 1061 z m 313 922 b 431 804 378 922 431 869 b 313 688 431 739 378 688 b 194 804 247 688 194 739 b 313 922 194 869 247 922 z m 913 1047 l 304 0 l 440 0 l 1049 1047 z m 1042 499 b 756 244 886 499 756 411 b 1042 -14 756 75 882 -14 b 1328 244 1201 -14 1328 75 b 1042 499 1328 411 1197 499 z m 1042 360 b 1160 242 1107 360 1160 307 b 1042 125 1160 176 1107 125 b 924 242 976 125 924 176 b 1042 360 924 307 976 360 z m 1715 499 b 1429 244 1560 499 1429 411 b 1715 -14 1429 75 1556 -14 b 2001 244 1875 -14 2001 75 b 1715 499 2001 411 1871 499 z m 1715 360 b 1833 242 1781 360 1833 307 b 1715 125 1833 176 1781 125 b 1597 242 1650 125 1597 176 b 1715 360 1597 307 1650 360 z "},"¿":{"ha":826,"x_min":0,"x_max":0,"o":"m 568 358 l 314 358 l 314 260 b 63 -40 172 215 63 117 b 182 -281 63 -132 113 -222 b 425 -367 250 -339 338 -367 b 806 -40 621 -367 804 -251 l 529 -40 b 432 -146 529 -100 496 -146 b 331 -42 374 -146 331 -99 b 510 96 331 50 431 96 b 568 89 529 96 549 93 z m 436 739 b 274 576 346 739 274 667 b 436 414 274 488 346 414 b 599 576 526 414 599 488 b 436 739 599 667 526 739 z "},"`":{"ha":558,"x_min":0,"x_max":0,"o":"m 104 1028 l 342 818 l 454 900 l 258 1139 z "},"´":{"ha":558,"x_min":0,"x_max":0,"o":"m 454 1028 l 300 1139 l 104 900 l 217 818 z "},"ˆ":{"ha":819,"x_min":0,"x_max":0,"o":"m 104 924 l 207 807 l 407 961 l 607 807 l 714 924 l 407 1151 z "},"˜":{"ha":763,"x_min":0,"x_max":0,"o":"m 219 856 b 267 907 228 882 233 907 b 478 856 332 907 407 856 b 658 1075 596 856 650 975 l 540 1075 b 485 1025 529 1046 519 1025 b 258 1072 429 1025 329 1072 b 135 994 207 1072 160 1038 b 104 871 113 957 104 915 l 106 856 z "},"¯":{"ha":838,"x_min":0,"x_max":0,"o":"m 104 1044 l 104 896 l 732 896 l 732 1044 z "},"ˉ":{"ha":838,"x_min":0,"x_max":0,"o":"m 104 1044 l 104 896 l 732 896 l 732 1044 z "},"˘":{"ha":749,"x_min":0,"x_max":0,"o":"m 104 1089 b 374 854 113 936 225 854 b 643 1089 522 854 635 936 l 489 1089 b 374 996 479 1029 435 996 b 260 1089 314 996 269 1029 z "},"˙":{"ha":558,"x_min":0,"x_max":0,"o":"m 281 1111 b 143 975 204 1111 143 1050 b 281 839 143 899 204 839 b 417 975 356 839 417 899 b 281 1111 417 1050 356 1111 z "},"¨":{"ha":839,"x_min":0,"x_max":0,"o":"m 242 1111 b 104 975 165 1111 104 1050 b 242 839 104 899 165 839 b 378 975 317 839 378 899 b 242 1111 378 1050 317 1111 z m 597 1111 b 460 975 521 1111 460 1050 b 597 839 460 899 521 839 b 733 975 672 839 733 899 b 597 1111 733 1050 672 1111 z "},"˚":{"ha":635,"x_min":0,"x_max":0,"o":"m 315 1132 b 104 971 211 1132 104 1090 b 319 813 104 850 217 813 b 531 972 422 813 531 854 b 315 1132 531 1093 419 1132 z m 318 1032 b 399 972 356 1032 399 1017 b 318 913 399 928 356 913 b 236 972 279 913 236 928 b 318 1032 236 1017 279 1032 z "},"¸":{"ha":528,"x_min":0,"x_max":0,"o":"m 422 -131 l 285 -42 l 104 -261 l 213 -329 z "},"˝":{"ha":749,"x_min":0,"x_max":0,"o":"m 353 1131 l 174 1131 l 154 833 l 283 833 z m 594 1131 l 415 1131 l 396 833 l 525 833 z "},"˛":{"ha":486,"x_min":0,"x_max":0,"o":"m 221 0 b 104 -178 158 -37 104 -101 b 239 -297 104 -247 174 -297 b 350 -271 274 -297 321 -289 l 381 -143 b 306 -169 357 -157 333 -169 b 242 -106 271 -169 242 -140 b 325 -3 242 -61 290 -22 l 325 0 z "},"ˇ":{"ha":819,"x_min":0,"x_max":0,"o":"m 104 1033 l 407 807 l 714 1033 l 607 1151 l 407 996 l 207 1151 z "},"—":{"ha":1389,"x_min":0,"x_max":0,"o":"m 181 550 l 181 342 l 1208 342 l 1208 550 z "},"Æ":{"ha":1425,"x_min":0,"x_max":0,"o":"m 653 390 l 422 390 l 540 701 z m 794 0 l 1425 0 l 1342 231 l 997 231 l 929 411 l 1275 411 l 1188 642 l 844 642 l 781 817 l 1125 817 l 1040 1047 l 399 1047 l -6 0 l 282 0 l 347 182 l 726 182 z "},"ª":{"ha":568,"x_min":0,"x_max":0,"o":"m 290 750 b 185 847 232 750 185 793 b 290 944 185 901 232 944 b 396 847 349 944 396 901 b 290 750 396 793 349 750 z m 390 633 l 554 633 l 554 1061 l 390 1061 l 390 1019 b 247 1075 356 1057 300 1075 b 15 847 110 1075 15 971 b 249 619 15 725 111 619 b 388 681 303 619 360 639 l 390 681 z "},"Ł":{"ha":740,"x_min":0,"x_max":0,"o":"m 26 324 l 142 396 l 142 0 l 740 0 l 740 231 l 414 231 l 414 568 l 571 667 l 571 869 l 414 769 l 414 1047 l 142 1047 l 142 594 l 26 521 z "},"Ø":{"ha":1232,"x_min":0,"x_max":0,"o":"m 361 382 b 319 542 333 428 319 482 b 615 818 319 686 453 818 b 764 778 669 818 721 803 z m 875 668 b 911 542 899 631 911 588 b 615 229 911 361 778 229 b 468 269 561 229 511 243 z m 29 56 l 138 -56 l 267 72 b 615 -35 363 3 482 -35 b 1194 543 951 -35 1194 204 b 1078 868 1194 669 1150 782 l 1203 992 l 1094 1103 l 963 974 b 615 1082 863 1043 742 1082 b 36 543 314 1082 36 860 b 154 179 36 400 79 276 z "},"Œ":{"ha":1583,"x_min":0,"x_max":0,"o":"m 917 0 l 1506 0 l 1506 231 l 1188 231 l 1188 411 l 1483 411 l 1483 642 l 1188 642 l 1188 817 l 1506 817 l 1506 1047 l 917 1047 l 917 951 b 583 1082 829 1039 718 1082 b 36 524 283 1082 36 821 b 583 -35 36 226 283 -35 b 917 115 718 -35 822 13 z m 613 818 b 904 524 775 818 904 686 b 613 229 904 363 775 229 b 319 524 451 229 319 363 b 613 818 319 686 451 818 z "},"º":{"ha":569,"x_min":0,"x_max":0,"o":"m 285 1075 b 7 847 136 1075 7 993 b 285 619 7 701 136 619 b 564 847 433 619 564 701 b 285 1075 564 993 433 1075 z m 285 943 b 390 847 343 943 390 900 b 285 751 390 793 343 751 b 181 847 226 751 181 793 b 285 943 181 900 226 943 z "},"æ":{"ha":1306,"x_min":0,"x_max":0,"o":"m 751 460 b 901 572 767 533 828 572 b 1044 460 969 572 1032 528 z m 381 303 b 515 225 428 303 515 288 b 389 150 515 168 431 150 b 275 226 342 150 275 168 b 381 303 275 282 335 303 z m 1275 314 l 1275 340 b 885 736 1275 583 1132 736 b 617 610 785 736 674 696 b 349 736 567 707 450 736 b 142 703 279 736 208 721 l 142 514 b 340 553 207 535 269 553 b 510 428 425 553 510 526 l 510 407 b 322 443 446 433 390 443 b 29 206 172 443 29 375 b 328 -24 29 49 192 -24 b 617 117 439 -24 549 29 b 903 -24 664 10 793 -24 b 1265 221 1065 -24 1225 53 l 1022 221 b 901 156 994 174 956 156 b 743 314 797 156 743 211 z "},"ı":{"ha":419,"x_min":0,"x_max":0,"o":"m 336 713 l 83 713 l 83 0 l 336 0 z "},"ł":{"ha":508,"x_min":0,"x_max":0,"o":"m 128 0 l 381 0 l 381 610 l 497 681 l 497 854 l 381 783 l 381 1153 l 128 1153 l 128 633 l 11 561 l 11 389 l 128 460 z "},"ø":{"ha":919,"x_min":0,"x_max":0,"o":"m 307 297 b 297 356 300 314 297 335 b 460 517 297 443 357 517 b 519 507 482 517 503 513 z m 613 415 b 622 356 619 396 622 376 b 460 196 622 265 563 196 b 400 206 438 196 418 199 z m 29 22 l 126 -65 l 225 32 b 460 -24 294 -6 375 -24 b 889 356 689 -24 889 114 b 799 600 889 456 854 538 l 890 692 l 793 778 l 694 681 b 460 736 626 717 544 736 b 31 356 231 736 31 599 b 121 113 31 257 64 175 z "},"œ":{"ha":1419,"x_min":0,"x_max":0,"o":"m 858 460 b 1008 572 874 533 935 572 b 1151 460 1076 572 1139 528 z m 458 517 b 621 356 547 517 621 443 b 458 196 621 265 547 196 b 296 356 369 196 296 265 b 458 517 296 443 369 517 z m 1390 340 b 1000 736 1390 583 1247 736 b 729 629 901 736 792 711 b 438 736 643 711 556 736 b 29 356 207 736 29 594 b 440 -24 29 111 207 -24 b 729 100 564 -24 647 8 b 1018 -24 794 8 892 -24 b 1381 221 1181 -24 1340 53 l 1138 221 b 1017 156 1110 174 1071 156 b 858 314 913 156 858 211 l 1390 314 z "},"ß":{"ha":904,"x_min":0,"x_max":0,"o":"m 83 614 l 11 614 l 11 413 l 83 413 l 83 0 l 336 0 l 336 790 b 442 949 336 868 340 949 b 547 843 507 949 547 908 b 410 731 547 760 488 728 l 410 529 b 597 360 511 536 597 465 b 410 192 597 251 515 188 l 410 -24 l 464 -24 b 763 68 565 -24 683 -1 b 874 346 838 132 874 249 b 667 642 874 511 803 588 b 790 860 744 700 790 760 b 444 1167 790 1063 633 1167 b 169 1075 347 1167 242 1142 b 83 818 94 1008 83 913 z "},"¹":{"ha":572,"x_min":0,"x_max":0,"o":"m 226 926 l 226 436 l 403 436 l 403 1064 l 129 1064 l 129 926 z "},"¬":{"ha":953,"x_min":0,"x_max":0,"o":"m 624 196 l 832 196 l 832 628 l 121 628 l 121 419 l 624 419 z "},"µ":{"ha":915,"x_min":0,"x_max":0,"o":"m 79 713 l 79 -356 l 332 -356 l 332 44 b 514 -24 364 14 425 -24 b 838 283 644 -24 838 42 l 838 713 l 585 713 l 585 332 b 458 178 585 242 563 178 b 332 332 354 178 332 242 l 332 713 z "},"μ":{"ha":915,"x_min":0,"x_max":0,"o":"m 79 713 l 79 -356 l 332 -356 l 332 44 b 514 -24 364 14 425 -24 b 838 283 644 -24 838 42 l 838 713 l 585 713 l 585 332 b 458 178 585 242 563 178 b 332 332 354 178 332 242 l 332 713 z "},"™":{"ha":1306,"x_min":0,"x_max":0,"o":"m 1249 1047 l 1051 1047 l 925 715 l 799 1047 l 601 1047 l 601 486 l 724 486 l 724 939 l 726 939 l 889 486 l 961 486 l 1124 939 l 1126 939 l 1126 486 l 1249 486 z m 533 1047 l 57 1047 l 57 939 l 228 939 l 228 486 l 363 486 l 363 939 l 533 939 z "},"Ð":{"ha":1044,"x_min":0,"x_max":0,"o":"m 361 817 l 425 817 b 724 524 600 817 724 711 b 422 231 724 319 585 231 l 361 231 l 361 429 l 514 429 l 514 643 l 361 643 z m 89 0 l 444 0 b 1007 524 761 0 1007 217 b 442 1047 1007 828 772 1047 l 89 1047 l 89 643 l -28 643 l -28 429 l 89 429 z "},"½":{"ha":1429,"x_min":0,"x_max":0,"o":"m 236 910 l 236 419 l 413 419 l 413 1047 l 139 1047 l 139 910 z m 1174 229 b 1283 429 1243 288 1283 339 b 1021 653 1283 567 1164 653 b 756 411 860 653 761 556 l 950 411 b 947 438 949 421 947 429 b 1022 514 947 481 974 514 b 1100 433 1068 514 1100 472 b 1022 279 1100 375 1061 318 l 743 0 l 1290 0 l 1290 138 l 1068 138 z m 857 1047 l 249 0 l 385 0 l 993 1047 z "},"±":{"ha":953,"x_min":0,"x_max":0,"o":"m 372 711 l 121 711 l 121 503 l 372 503 l 372 306 l 581 306 l 581 503 l 832 503 l 832 711 l 581 711 l 581 908 l 372 908 z m 121 208 l 121 0 l 832 0 l 832 208 z "},"Þ":{"ha":918,"x_min":0,"x_max":0,"o":"m 89 0 l 361 0 l 361 181 l 515 181 b 886 536 753 181 886 289 b 506 881 886 776 731 881 l 361 881 l 361 1047 l 89 1047 z m 361 661 l 407 661 b 603 528 513 661 603 660 b 407 400 603 400 506 400 l 361 400 z "},"¼":{"ha":1429,"x_min":0,"x_max":0,"o":"m 236 910 l 236 419 l 413 419 l 413 1047 l 139 1047 l 139 910 z m 1208 256 l 1208 628 l 976 628 l 714 235 l 714 131 l 1044 131 l 1044 0 l 1208 0 l 1208 131 l 1290 131 l 1290 256 z m 1044 254 l 883 254 l 1042 496 l 1044 496 z m 896 1047 l 288 0 l 424 0 l 1032 1047 z "},"÷":{"ha":953,"x_min":0,"x_max":0,"o":"m 121 461 l 121 253 l 832 253 l 832 461 z m 476 176 b 376 76 421 176 376 132 b 476 -24 376 21 421 -24 b 576 76 532 -24 576 21 b 476 176 576 132 532 176 z m 476 738 b 376 638 421 738 376 693 b 476 538 376 582 421 538 b 576 638 532 538 576 582 b 476 738 576 693 532 738 z "},"¦":{"ha":804,"x_min":0,"x_max":0,"o":"m 507 224 l 299 224 l 299 -124 l 507 -124 z m 507 918 l 299 918 l 299 571 l 507 571 z "},"°":{"ha":556,"x_min":0,"x_max":0,"o":"m 486 865 b 276 1075 486 981 390 1075 b 69 865 160 1075 67 981 b 276 658 69 751 160 658 b 486 865 390 658 486 751 z m 368 867 b 278 776 368 817 328 776 b 188 867 228 776 188 817 b 276 957 186 915 228 957 b 368 867 328 957 368 915 z "},"þ":{"ha":947,"x_min":0,"x_max":0,"o":"m 328 1153 l 75 1153 l 75 -356 l 328 -356 l 328 68 b 549 -24 382 6 467 -24 b 906 354 760 -24 906 149 b 546 736 906 558 758 736 b 331 632 463 736 376 703 l 328 632 z m 482 517 b 644 356 585 517 644 443 b 482 196 644 265 585 196 b 319 356 379 196 319 265 b 482 517 319 443 379 517 z "},"¾":{"ha":1429,"x_min":0,"x_max":0,"o":"m 1278 256 l 1278 628 l 1046 628 l 783 235 l 783 131 l 1114 131 l 1114 0 l 1278 0 l 1278 131 l 1360 131 l 1360 256 z m 1114 254 l 953 254 l 1111 496 l 1114 496 z m 1015 1047 l 407 0 l 543 0 l 1151 1047 z m 314 782 l 314 674 b 346 678 325 675 335 678 b 439 594 394 678 439 642 b 344 511 439 543 399 511 b 276 536 317 511 293 521 b 250 599 260 551 250 574 l 69 599 b 147 442 67 544 106 479 b 350 371 201 390 272 371 b 614 578 485 371 614 442 b 503 736 614 642 575 719 b 575 865 553 763 575 815 b 357 1047 575 982 479 1047 b 104 842 217 1047 118 972 l 268 842 b 340 914 268 882 296 914 b 410 851 381 914 410 889 b 332 782 410 808 378 782 z "},"²":{"ha":572,"x_min":0,"x_max":0,"o":"m 435 665 b 544 865 504 724 544 775 b 282 1089 544 1003 425 1089 b 17 847 121 1089 22 992 l 211 847 b 208 874 210 857 208 865 b 283 950 208 917 235 950 b 361 869 329 950 361 908 b 283 715 361 811 322 754 l 4 436 l 551 436 l 551 574 l 329 574 z "},"®":{"ha":1111,"x_min":0,"x_max":0,"o":"m 556 -28 b 1106 522 861 -28 1106 218 b 556 1075 1106 829 861 1075 b 6 522 249 1075 6 829 b 556 -28 6 218 249 -28 z m 556 103 b 136 522 315 103 136 278 b 556 944 136 769 315 944 b 975 522 792 944 975 769 b 556 103 975 278 792 103 z m 681 485 b 836 640 782 492 836 535 b 614 815 836 792 746 815 l 336 815 l 336 243 l 464 243 l 464 485 l 553 485 l 681 243 l 819 243 z m 464 571 l 464 715 l 588 715 b 717 657 643 715 717 715 b 617 571 717 585 681 571 z "},"−":{"ha":953,"x_min":0,"x_max":0,"o":"m 121 461 l 121 253 l 832 253 l 832 461 z "},"ð":{"ha":919,"x_min":0,"x_max":0,"o":"m 57 1033 b 214 950 110 1011 164 982 l 63 869 l 154 771 l 335 867 b 492 711 392 822 447 767 b 410 719 468 715 444 719 b 31 354 225 719 31 585 b 451 -24 31 88 275 -24 b 889 413 672 -24 889 106 b 546 978 889 678 722 831 l 690 1054 l 600 1156 l 424 1063 b 204 1178 386 1088 351 1110 z m 460 517 b 622 356 563 517 622 443 b 460 196 622 265 563 196 b 297 356 357 196 297 265 b 460 517 297 443 357 517 z "},"×":{"ha":953,"x_min":0,"x_max":0,"o":"m 331 356 l 121 147 l 268 0 l 476 208 l 685 0 l 832 147 l 624 356 l 831 565 l 683 713 l 476 501 l 268 713 l 121 565 z "},"³":{"ha":572,"x_min":0,"x_max":0,"o":"m 6 640 b 83 483 3 586 42 521 b 286 413 138 432 208 413 b 550 619 421 413 550 483 b 439 778 550 683 511 761 b 511 907 489 804 511 857 b 293 1089 511 1024 415 1089 b 40 883 153 1089 54 1014 l 204 883 b 276 956 204 924 232 956 b 346 893 317 956 346 931 b 268 824 346 850 314 824 l 250 824 l 250 715 b 282 719 261 717 271 719 b 375 636 331 719 375 683 b 281 553 375 585 335 553 b 186 640 225 553 186 590 z "},"©":{"ha":1111,"x_min":0,"x_max":0,"o":"m 556 -28 b 1106 522 861 -28 1106 218 b 556 1075 1106 829 861 1075 b 6 522 249 1075 6 829 b 556 -28 6 218 249 -28 z m 556 103 b 136 522 315 103 136 278 b 556 944 136 769 315 944 b 975 522 792 944 975 769 b 556 103 975 278 792 103 z m 836 638 b 576 846 814 768 708 846 b 274 528 388 846 274 711 b 579 211 274 351 394 211 b 836 425 707 211 821 292 l 711 425 b 579 318 707 358 644 318 b 404 531 472 318 404 426 b 575 739 404 640 465 739 b 711 638 643 739 700 706 z "},"Á":{"ha":1085,"x_min":0,"x_max":0,"o":"m 731 182 l 799 0 l 1089 0 l 694 1047 l 397 1047 l -6 0 l 283 0 l 356 182 z m 657 390 l 431 390 l 543 724 l 546 724 z m 746 1321 l 592 1432 l 396 1193 l 508 1111 z "},"Â":{"ha":1085,"x_min":0,"x_max":0,"o":"m 731 182 l 799 0 l 1089 0 l 694 1047 l 397 1047 l -6 0 l 283 0 l 356 182 z m 657 390 l 431 390 l 543 724 l 546 724 z m 238 1217 l 340 1100 l 540 1254 l 740 1100 l 847 1217 l 540 1444 z "},"Ä":{"ha":1085,"x_min":0,"x_max":0,"o":"m 731 182 l 799 0 l 1089 0 l 694 1047 l 397 1047 l -6 0 l 283 0 l 356 182 z m 657 390 l 431 390 l 543 724 l 546 724 z m 365 1404 b 228 1268 289 1404 228 1343 b 365 1132 228 1192 289 1132 b 501 1268 440 1132 501 1192 b 365 1404 501 1343 440 1404 z m 721 1404 b 583 1268 644 1404 583 1343 b 721 1132 583 1192 644 1132 b 857 1268 796 1132 857 1192 b 721 1404 857 1343 796 1404 z "},"À":{"ha":1085,"x_min":0,"x_max":0,"o":"m 731 182 l 799 0 l 1089 0 l 694 1047 l 397 1047 l -6 0 l 283 0 l 356 182 z m 657 390 l 431 390 l 543 724 l 546 724 z m 340 1321 l 578 1111 l 690 1193 l 494 1432 z "},"Å":{"ha":1085,"x_min":0,"x_max":0,"o":"m 731 182 l 799 0 l 1089 0 l 694 1047 l 397 1047 l -6 0 l 283 0 l 356 182 z m 657 390 l 431 390 l 543 724 l 546 724 z m 540 1404 b 329 1243 436 1404 329 1363 b 544 1085 329 1122 442 1085 b 756 1244 647 1085 756 1126 b 540 1404 756 1365 644 1404 z m 543 1304 b 624 1244 581 1304 624 1289 b 543 1185 624 1200 581 1185 b 461 1244 504 1185 461 1200 b 543 1304 461 1289 504 1304 z "},"Ã":{"ha":1085,"x_min":0,"x_max":0,"o":"m 731 182 l 799 0 l 1089 0 l 694 1047 l 397 1047 l -6 0 l 283 0 l 356 182 z m 657 390 l 431 390 l 543 724 l 546 724 z m 381 1149 b 428 1200 389 1175 394 1200 b 639 1149 493 1200 568 1149 b 819 1368 757 1149 811 1268 l 701 1368 b 646 1318 690 1339 681 1318 b 419 1365 590 1318 490 1365 b 296 1288 368 1365 321 1331 b 265 1164 274 1250 265 1208 l 267 1149 z "},"Ç":{"ha":917,"x_min":0,"x_max":0,"o":"m 838 1022 b 589 1075 757 1056 676 1075 b 190 906 442 1075 293 1011 b 36 522 90 803 36 665 b 204 126 36 367 89 231 b 597 -28 313 28 451 -28 b 838 21 682 -28 747 -7 l 838 347 b 603 236 781 279 692 236 b 319 521 433 236 319 356 b 599 811 319 683 432 811 b 838 696 692 811 782 771 z m 651 -131 l 514 -42 l 333 -261 l 442 -329 z "},"É":{"ha":764,"x_min":0,"x_max":0,"o":"m 685 817 l 685 1047 l 89 1047 l 89 0 l 685 0 l 685 231 l 361 231 l 361 411 l 668 411 l 668 642 l 361 642 l 361 817 z m 557 1321 l 403 1432 l 207 1193 l 319 1111 z "},"Ê":{"ha":764,"x_min":0,"x_max":0,"o":"m 685 817 l 685 1047 l 89 1047 l 89 0 l 685 0 l 685 231 l 361 231 l 361 411 l 668 411 l 668 642 l 361 642 l 361 817 z m 76 1217 l 179 1100 l 379 1254 l 579 1100 l 686 1217 l 379 1444 z "},"Ë":{"ha":764,"x_min":0,"x_max":0,"o":"m 685 817 l 685 1047 l 89 1047 l 89 0 l 685 0 l 685 231 l 361 231 l 361 411 l 668 411 l 668 642 l 361 642 l 361 817 z m 204 1404 b 67 1268 128 1404 67 1343 b 204 1132 67 1192 128 1132 b 340 1268 279 1132 340 1192 b 204 1404 340 1343 279 1404 z m 560 1404 b 422 1268 483 1404 422 1343 b 560 1132 422 1192 483 1132 b 696 1268 635 1132 696 1192 b 560 1404 696 1343 635 1404 z "},"È":{"ha":764,"x_min":0,"x_max":0,"o":"m 685 817 l 685 1047 l 89 1047 l 89 0 l 685 0 l 685 231 l 361 231 l 361 411 l 668 411 l 668 642 l 361 642 l 361 817 z m 207 1321 l 444 1111 l 557 1193 l 361 1432 z "},"Í":{"ha":450,"x_min":0,"x_max":0,"o":"m 361 1047 l 89 1047 l 89 0 l 361 0 z m 421 1321 l 267 1432 l 71 1193 l 183 1111 z "},"Î":{"ha":450,"x_min":0,"x_max":0,"o":"m 361 1047 l 89 1047 l 89 0 l 361 0 z m -60 1217 l 43 1100 l 243 1254 l 443 1100 l 550 1217 l 243 1444 z "},"Ï":{"ha":450,"x_min":0,"x_max":0,"o":"m 361 1047 l 89 1047 l 89 0 l 361 0 z m 47 1404 b -90 1268 -29 1404 -90 1343 b 47 1132 -90 1192 -29 1132 b 183 1268 122 1132 183 1192 b 47 1404 183 1343 122 1404 z m 403 1404 b 265 1268 326 1404 265 1343 b 403 1132 265 1192 326 1132 b 539 1268 478 1132 539 1192 b 403 1404 539 1343 478 1404 z "},"Ì":{"ha":450,"x_min":0,"x_max":0,"o":"m 361 1047 l 89 1047 l 89 0 l 361 0 z m 29 1321 l 267 1111 l 379 1193 l 183 1432 z "},"Ñ":{"ha":1224,"x_min":0,"x_max":0,"o":"m 89 0 l 361 0 l 361 642 l 364 642 l 863 0 l 1135 0 l 1135 1047 l 863 1047 l 863 407 l 860 407 l 361 1047 l 89 1047 z m 450 1149 b 497 1200 458 1175 464 1200 b 708 1149 563 1200 638 1149 b 889 1368 826 1149 881 1268 l 771 1368 b 715 1318 760 1339 750 1318 b 489 1365 660 1318 560 1365 b 365 1288 438 1365 390 1331 b 335 1164 343 1250 335 1208 l 336 1149 z "},"Ó":{"ha":1232,"x_min":0,"x_max":0,"o":"m 615 1082 b 36 543 314 1082 36 860 b 615 -35 36 204 279 -35 b 1194 543 951 -35 1194 204 b 615 1082 1194 860 917 1082 z m 615 818 b 911 542 778 818 911 686 b 615 229 911 361 778 229 b 319 542 453 229 319 361 b 615 818 319 686 453 818 z m 819 1321 l 665 1432 l 469 1193 l 582 1111 z "},"Ô":{"ha":1232,"x_min":0,"x_max":0,"o":"m 615 1082 b 36 543 314 1082 36 860 b 615 -35 36 204 279 -35 b 1194 543 951 -35 1194 204 b 615 1082 1194 860 917 1082 z m 615 818 b 911 542 778 818 911 686 b 615 229 911 361 778 229 b 319 542 453 229 319 361 b 615 818 319 686 453 818 z m 311 1217 l 414 1100 l 614 1254 l 814 1100 l 921 1217 l 614 1444 z "},"Ö":{"ha":1232,"x_min":0,"x_max":0,"o":"m 615 1082 b 36 543 314 1082 36 860 b 615 -35 36 204 279 -35 b 1194 543 951 -35 1194 204 b 615 1082 1194 860 917 1082 z m 615 818 b 911 542 778 818 911 686 b 615 229 911 361 778 229 b 319 542 453 229 319 361 b 615 818 319 686 453 818 z m 439 1404 b 301 1268 363 1404 301 1343 b 439 1132 301 1192 363 1132 b 575 1268 514 1132 575 1192 b 439 1404 575 1343 514 1404 z m 794 1404 b 657 1268 718 1404 657 1343 b 794 1132 657 1192 718 1132 b 931 1268 869 1132 931 1192 b 794 1404 931 1343 869 1404 z "},"Ò":{"ha":1232,"x_min":0,"x_max":0,"o":"m 615 1082 b 36 543 314 1082 36 860 b 615 -35 36 204 279 -35 b 1194 543 951 -35 1194 204 b 615 1082 1194 860 917 1082 z m 615 818 b 911 542 778 818 911 686 b 615 229 911 361 778 229 b 319 542 453 229 319 361 b 615 818 319 686 453 818 z m 414 1321 l 651 1111 l 764 1193 l 568 1432 z "},"Õ":{"ha":1232,"x_min":0,"x_max":0,"o":"m 615 1082 b 36 543 314 1082 36 860 b 615 -35 36 204 279 -35 b 1194 543 951 -35 1194 204 b 615 1082 1194 860 917 1082 z m 615 818 b 911 542 778 818 911 686 b 615 229 911 361 778 229 b 319 542 453 229 319 361 b 615 818 319 686 453 818 z m 454 1149 b 501 1200 463 1175 468 1200 b 713 1149 567 1200 642 1149 b 893 1368 831 1149 885 1268 l 775 1368 b 719 1318 764 1339 754 1318 b 493 1365 664 1318 564 1365 b 369 1288 442 1365 394 1331 b 339 1164 347 1250 339 1208 l 340 1149 z "},"Š":{"ha":856,"x_min":0,"x_max":0,"o":"m 772 989 b 444 1075 679 1042 550 1075 b 83 724 235 1075 83 936 b 367 428 83 521 196 476 b 532 308 425 411 532 385 b 400 203 532 235 464 203 b 158 311 307 203 226 251 l 42 92 b 410 -28 149 17 278 -28 b 707 71 515 -28 625 1 b 815 353 790 142 815 249 b 557 639 815 522 703 596 l 488 660 b 367 760 440 675 367 699 b 483 847 367 818 433 847 b 664 778 550 847 614 819 z m 122 1326 l 425 1100 l 732 1326 l 625 1444 l 425 1289 l 225 1444 z "},"Ú":{"ha":1081,"x_min":0,"x_max":0,"o":"m 725 1047 l 725 496 b 540 211 725 360 715 211 b 356 496 365 211 356 360 l 356 1047 l 83 1047 l 83 458 b 193 89 83 324 89 190 b 540 -28 281 3 418 -28 b 888 89 663 -28 800 3 b 997 458 992 190 997 324 l 997 1047 z m 743 1321 l 589 1432 l 393 1193 l 506 1111 z "},"Û":{"ha":1081,"x_min":0,"x_max":0,"o":"m 725 1047 l 725 496 b 540 211 725 360 715 211 b 356 496 365 211 356 360 l 356 1047 l 83 1047 l 83 458 b 193 89 83 324 89 190 b 540 -28 281 3 418 -28 b 888 89 663 -28 800 3 b 997 458 992 190 997 324 l 997 1047 z m 235 1217 l 338 1100 l 538 1254 l 738 1100 l 844 1217 l 538 1444 z "},"Ü":{"ha":1081,"x_min":0,"x_max":0,"o":"m 725 1047 l 725 496 b 540 211 725 360 715 211 b 356 496 365 211 356 360 l 356 1047 l 83 1047 l 83 458 b 193 89 83 324 89 190 b 540 -28 281 3 418 -28 b 888 89 663 -28 800 3 b 997 458 992 190 997 324 l 997 1047 z m 363 1404 b 225 1268 286 1404 225 1343 b 363 1132 225 1192 286 1132 b 499 1268 438 1132 499 1192 b 363 1404 499 1343 438 1404 z m 718 1404 b 581 1268 642 1404 581 1343 b 718 1132 581 1192 642 1132 b 854 1268 793 1132 854 1192 b 718 1404 854 1343 793 1404 z "},"Ù":{"ha":1081,"x_min":0,"x_max":0,"o":"m 725 1047 l 725 496 b 540 211 725 360 715 211 b 356 496 365 211 356 360 l 356 1047 l 83 1047 l 83 458 b 193 89 83 324 89 190 b 540 -28 281 3 418 -28 b 888 89 663 -28 800 3 b 997 458 992 190 997 324 l 997 1047 z m 338 1321 l 575 1111 l 688 1193 l 492 1432 z "},"Ý":{"ha":992,"x_min":0,"x_max":0,"o":"m 360 503 l 360 0 l 632 0 l 632 503 l 1018 1047 l 692 1047 l 496 763 l 300 1047 l -26 1047 z m 726 1321 l 572 1432 l 376 1193 l 489 1111 z "},"Ÿ":{"ha":992,"x_min":0,"x_max":0,"o":"m 360 503 l 360 0 l 632 0 l 632 503 l 1018 1047 l 692 1047 l 496 763 l 300 1047 l -26 1047 z m 332 1404 b 194 1268 256 1404 194 1343 b 332 1132 194 1192 256 1132 b 468 1268 407 1132 468 1192 b 332 1404 468 1343 407 1404 z m 688 1404 b 550 1268 611 1404 550 1343 b 688 1132 550 1192 611 1132 b 824 1268 763 1132 824 1192 b 688 1404 824 1343 763 1404 z "},"Ž":{"ha":982,"x_min":0,"x_max":0,"o":"m 474 231 l 967 1047 l 100 1047 l 100 817 l 511 817 l 15 0 l 913 0 l 913 231 z m 200 1326 l 503 1100 l 810 1326 l 703 1444 l 503 1289 l 303 1444 z "},"á":{"ha":947,"x_min":0,"x_max":0,"o":"m 456 517 b 618 356 558 517 618 443 b 456 196 618 265 558 196 b 293 356 353 196 293 265 b 456 517 293 443 353 517 z m 863 713 l 610 713 l 610 643 b 389 736 557 706 471 736 b 32 357 178 736 32 561 b 392 -24 32 153 181 -24 b 607 79 475 -24 563 8 l 610 79 l 610 0 l 863 0 z m 676 1028 l 522 1139 l 326 900 l 439 818 z "},"â":{"ha":947,"x_min":0,"x_max":0,"o":"m 456 517 b 618 356 558 517 618 443 b 456 196 618 265 558 196 b 293 356 353 196 293 265 b 456 517 293 443 353 517 z m 863 713 l 610 713 l 610 643 b 389 736 557 706 471 736 b 32 357 178 736 32 561 b 392 -24 32 153 181 -24 b 607 79 475 -24 563 8 l 610 79 l 610 0 l 863 0 z m 168 924 l 271 807 l 471 961 l 671 807 l 778 924 l 471 1151 z "},"ä":{"ha":947,"x_min":0,"x_max":0,"o":"m 456 517 b 618 356 558 517 618 443 b 456 196 618 265 558 196 b 293 356 353 196 293 265 b 456 517 293 443 353 517 z m 863 713 l 610 713 l 610 643 b 389 736 557 706 471 736 b 32 357 178 736 32 561 b 392 -24 32 153 181 -24 b 607 79 475 -24 563 8 l 610 79 l 610 0 l 863 0 z m 296 1111 b 158 975 219 1111 158 1050 b 296 839 158 899 219 839 b 432 975 371 839 432 899 b 296 1111 432 1050 371 1111 z m 651 1111 b 514 975 575 1111 514 1050 b 651 839 514 899 575 839 b 788 975 726 839 788 899 b 651 1111 788 1050 726 1111 z "},"à":{"ha":947,"x_min":0,"x_max":0,"o":"m 456 517 b 618 356 558 517 618 443 b 456 196 618 265 558 196 b 293 356 353 196 293 265 b 456 517 293 443 353 517 z m 863 713 l 610 713 l 610 643 b 389 736 557 706 471 736 b 32 357 178 736 32 561 b 392 -24 32 153 181 -24 b 607 79 475 -24 563 8 l 610 79 l 610 0 l 863 0 z m 299 1028 l 536 818 l 649 900 l 453 1139 z "},"å":{"ha":947,"x_min":0,"x_max":0,"o":"m 456 517 b 618 356 558 517 618 443 b 456 196 618 265 558 196 b 293 356 353 196 293 265 b 456 517 293 443 353 517 z m 863 713 l 610 713 l 610 643 b 389 736 557 706 471 736 b 32 357 178 736 32 561 b 392 -24 32 153 181 -24 b 607 79 475 -24 563 8 l 610 79 l 610 0 l 863 0 z m 472 1132 b 261 971 368 1132 261 1090 b 476 813 261 850 374 813 b 688 972 579 813 688 854 b 472 1132 688 1093 576 1132 z m 475 1032 b 556 972 513 1032 556 1017 b 475 913 556 928 513 913 b 393 972 436 913 393 928 b 475 1032 393 1017 436 1032 z "},"ã":{"ha":947,"x_min":0,"x_max":0,"o":"m 456 517 b 618 356 558 517 618 443 b 456 196 618 265 558 196 b 293 356 353 196 293 265 b 456 517 293 443 353 517 z m 863 713 l 610 713 l 610 643 b 389 736 557 706 471 736 b 32 357 178 736 32 561 b 392 -24 32 153 181 -24 b 607 79 475 -24 563 8 l 610 79 l 610 0 l 863 0 z m 313 856 b 360 907 321 882 326 907 b 571 856 425 907 500 856 b 751 1075 689 856 743 975 l 633 1075 b 578 1025 622 1046 613 1025 b 351 1072 522 1025 422 1072 b 228 994 300 1072 253 1038 b 197 871 206 957 197 915 l 199 856 z "},"ç":{"ha":671,"x_min":0,"x_max":0,"o":"m 597 694 b 431 736 547 722 489 736 b 32 349 207 736 32 578 b 419 -24 32 133 208 -24 b 597 17 481 -24 542 -11 l 597 231 b 471 182 564 200 515 182 b 293 357 367 182 293 254 b 467 531 293 456 369 531 b 597 481 515 531 560 508 z m 494 -131 l 357 -42 l 176 -261 l 285 -329 z "},"é":{"ha":847,"x_min":0,"x_max":0,"o":"m 288 460 b 438 572 303 533 364 572 b 581 460 506 572 568 528 z m 815 340 b 425 736 815 583 672 736 b 31 356 193 736 31 593 b 443 -24 31 110 207 -24 b 806 221 606 -24 765 53 l 563 221 b 442 156 535 174 496 156 b 283 314 338 156 283 211 l 815 314 z m 633 1028 l 479 1139 l 283 900 l 396 818 z "},"ê":{"ha":847,"x_min":0,"x_max":0,"o":"m 288 460 b 438 572 303 533 364 572 b 581 460 506 572 568 528 z m 815 340 b 425 736 815 583 672 736 b 31 356 193 736 31 593 b 443 -24 31 110 207 -24 b 806 221 606 -24 765 53 l 563 221 b 442 156 535 174 496 156 b 283 314 338 156 283 211 l 815 314 z m 118 924 l 221 807 l 421 961 l 621 807 l 728 924 l 421 1151 z "},"ë":{"ha":847,"x_min":0,"x_max":0,"o":"m 288 460 b 438 572 303 533 364 572 b 581 460 506 572 568 528 z m 815 340 b 425 736 815 583 672 736 b 31 356 193 736 31 593 b 443 -24 31 110 207 -24 b 806 221 606 -24 765 53 l 563 221 b 442 156 535 174 496 156 b 283 314 338 156 283 211 l 815 314 z m 246 1111 b 108 975 169 1111 108 1050 b 246 839 108 899 169 839 b 382 975 321 839 382 899 b 246 1111 382 1050 321 1111 z m 601 1111 b 464 975 525 1111 464 1050 b 601 839 464 899 525 839 b 738 975 676 839 738 899 b 601 1111 738 1050 676 1111 z "},"è":{"ha":847,"x_min":0,"x_max":0,"o":"m 288 460 b 438 572 303 533 364 572 b 581 460 506 572 568 528 z m 815 340 b 425 736 815 583 672 736 b 31 356 193 736 31 593 b 443 -24 31 110 207 -24 b 806 221 606 -24 765 53 l 563 221 b 442 156 535 174 496 156 b 283 314 338 156 283 211 l 815 314 z m 214 1028 l 451 818 l 564 900 l 368 1139 z "},"í":{"ha":419,"x_min":0,"x_max":0,"o":"m 336 713 l 83 713 l 83 0 l 336 0 z m 406 1028 l 251 1139 l 56 900 l 168 818 z "},"î":{"ha":419,"x_min":0,"x_max":0,"o":"m 336 713 l 83 713 l 83 0 l 336 0 z m -96 924 l 7 807 l 207 961 l 407 807 l 514 924 l 207 1151 z "},"ï":{"ha":419,"x_min":0,"x_max":0,"o":"m 336 713 l 83 713 l 83 0 l 336 0 z m 32 1111 b -106 975 -44 1111 -106 1050 b 32 839 -106 899 -44 839 b 168 975 107 839 168 899 b 32 1111 168 1050 107 1111 z m 388 1111 b 250 975 311 1111 250 1050 b 388 839 250 899 311 839 b 524 975 463 839 524 899 b 388 1111 524 1050 463 1111 z "},"ì":{"ha":419,"x_min":0,"x_max":0,"o":"m 336 713 l 83 713 l 83 0 l 336 0 z m 14 1028 l 251 818 l 364 900 l 168 1139 z "},"ñ":{"ha":918,"x_min":0,"x_max":0,"o":"m 336 713 l 83 713 l 83 0 l 336 0 l 336 369 b 468 535 336 458 365 535 b 582 347 593 535 582 415 l 582 0 l 835 0 l 835 440 b 567 736 835 615 758 736 b 339 621 468 736 397 707 l 336 621 z m 297 856 b 344 907 306 882 311 907 b 556 856 410 907 485 856 b 736 1075 674 856 728 975 l 618 1075 b 563 1025 607 1046 597 1025 b 336 1072 507 1025 407 1072 b 213 994 285 1072 238 1038 b 182 871 190 957 182 915 l 183 856 z "},"ó":{"ha":919,"x_min":0,"x_max":0,"o":"m 460 736 b 31 356 231 736 31 599 b 460 -24 31 113 232 -24 b 889 356 689 -24 889 114 b 460 736 889 599 689 736 z m 460 517 b 622 356 563 517 622 443 b 460 196 622 265 563 196 b 297 356 357 196 297 265 b 460 517 297 443 357 517 z m 669 1028 l 515 1139 l 319 900 l 432 818 z "},"ô":{"ha":919,"x_min":0,"x_max":0,"o":"m 460 736 b 31 356 231 736 31 599 b 460 -24 31 113 232 -24 b 889 356 689 -24 889 114 b 460 736 889 599 689 736 z m 460 517 b 622 356 563 517 622 443 b 460 196 622 265 563 196 b 297 356 357 196 297 265 b 460 517 297 443 357 517 z m 154 924 l 257 807 l 457 961 l 657 807 l 764 924 l 457 1151 z "},"ö":{"ha":919,"x_min":0,"x_max":0,"o":"m 460 736 b 31 356 231 736 31 599 b 460 -24 31 113 232 -24 b 889 356 689 -24 889 114 b 460 736 889 599 689 736 z m 460 517 b 622 356 563 517 622 443 b 460 196 622 265 563 196 b 297 356 357 196 297 265 b 460 517 297 443 357 517 z m 282 1111 b 144 975 206 1111 144 1050 b 282 839 144 899 206 839 b 418 975 357 839 418 899 b 282 1111 418 1050 357 1111 z m 638 1111 b 500 975 561 1111 500 1050 b 638 839 500 899 561 839 b 774 975 713 839 774 899 b 638 1111 774 1050 713 1111 z "},"ò":{"ha":919,"x_min":0,"x_max":0,"o":"m 460 736 b 31 356 231 736 31 599 b 460 -24 31 113 232 -24 b 889 356 689 -24 889 114 b 460 736 889 599 689 736 z m 460 517 b 622 356 563 517 622 443 b 460 196 622 265 563 196 b 297 356 357 196 297 265 b 460 517 297 443 357 517 z m 250 1028 l 488 818 l 600 900 l 404 1139 z "},"õ":{"ha":919,"x_min":0,"x_max":0,"o":"m 460 736 b 31 356 231 736 31 599 b 460 -24 31 113 232 -24 b 889 356 689 -24 889 114 b 460 736 889 599 689 736 z m 460 517 b 622 356 563 517 622 443 b 460 196 622 265 563 196 b 297 356 357 196 297 265 b 460 517 297 443 357 517 z m 299 856 b 346 907 307 882 313 907 b 557 856 411 907 486 856 b 738 1075 675 856 729 975 l 619 1075 b 564 1025 608 1046 599 1025 b 338 1072 508 1025 408 1072 b 214 994 286 1072 239 1038 b 183 871 192 957 183 915 l 185 856 z "},"š":{"ha":713,"x_min":0,"x_max":0,"o":"m 639 690 b 404 736 565 724 485 736 b 90 483 249 736 90 658 b 249 296 90 356 169 317 b 407 217 328 275 407 272 b 328 163 407 178 360 163 b 128 235 265 163 179 199 l 36 58 b 324 -24 122 6 222 -24 b 660 242 489 -24 660 54 b 453 453 660 374 571 429 b 339 515 418 460 339 467 b 418 564 339 551 389 564 b 554 529 461 564 515 550 z m 51 1033 l 354 807 l 661 1033 l 554 1151 l 354 996 l 154 1151 z "},"ú":{"ha":915,"x_min":0,"x_max":0,"o":"m 79 713 l 79 283 b 458 -24 79 49 244 -24 b 838 283 672 -24 838 49 l 838 713 l 585 713 l 585 332 b 458 178 585 242 563 178 b 332 332 354 178 332 242 l 332 713 z m 675 1028 l 521 1139 l 325 900 l 438 818 z "},"û":{"ha":915,"x_min":0,"x_max":0,"o":"m 79 713 l 79 283 b 458 -24 79 49 244 -24 b 838 283 672 -24 838 49 l 838 713 l 585 713 l 585 332 b 458 178 585 242 563 178 b 332 332 354 178 332 242 l 332 713 z m 153 924 l 256 807 l 456 961 l 656 807 l 763 924 l 456 1151 z "},"ü":{"ha":915,"x_min":0,"x_max":0,"o":"m 79 713 l 79 283 b 458 -24 79 49 244 -24 b 838 283 672 -24 838 49 l 838 713 l 585 713 l 585 332 b 458 178 585 242 563 178 b 332 332 354 178 332 242 l 332 713 z m 281 1111 b 143 975 204 1111 143 1050 b 281 839 143 899 204 839 b 417 975 356 839 417 899 b 281 1111 417 1050 356 1111 z m 636 1111 b 499 975 560 1111 499 1050 b 636 839 499 899 560 839 b 772 975 711 839 772 899 b 636 1111 772 1050 711 1111 z "},"ù":{"ha":915,"x_min":0,"x_max":0,"o":"m 79 713 l 79 283 b 458 -24 79 49 244 -24 b 838 283 672 -24 838 49 l 838 713 l 585 713 l 585 332 b 458 178 585 242 563 178 b 332 332 354 178 332 242 l 332 713 z m 242 1028 l 479 818 l 592 900 l 396 1139 z "},"ý":{"ha":908,"x_min":0,"x_max":0,"o":"m 324 97 l 81 -356 l 364 -356 l 935 713 l 647 713 l 461 347 l 271 713 l -21 713 z m 685 1028 l 531 1139 l 335 900 l 447 818 z "},"ÿ":{"ha":908,"x_min":0,"x_max":0,"o":"m 324 97 l 81 -356 l 364 -356 l 935 713 l 647 713 l 461 347 l 271 713 l -21 713 z m 297 1111 b 160 975 221 1111 160 1050 b 297 839 160 899 221 839 b 433 975 372 839 433 899 b 297 1111 433 1050 372 1111 z m 653 1111 b 515 975 576 1111 515 1050 b 653 839 515 899 576 839 b 789 975 728 839 789 899 b 653 1111 789 1050 728 1111 z "},"ž":{"ha":776,"x_min":0,"x_max":0,"o":"m 433 210 l 767 713 l 56 713 l 56 503 l 346 503 l 11 0 l 733 0 l 733 210 z m 83 1033 l 386 807 l 693 1033 l 586 1151 l 386 996 l 186 1151 z "},"€":{"ha":953,"x_min":0,"x_max":0,"o":"m 868 1021 b 613 1089 833 1050 742 1089 b 149 692 313 1089 193 914 l 74 692 l 22 553 l 138 553 b 136 514 136 540 136 529 b 138 471 136 497 136 483 l 74 471 l 22 333 l 150 333 b 614 -40 194 90 336 -40 b 868 22 750 -40 833 -3 l 868 261 b 644 188 829 224 742 188 b 417 333 510 188 440 242 l 674 333 l 725 471 l 394 471 b 393 517 393 482 393 500 b 394 553 393 529 393 544 l 756 553 l 807 692 l 410 692 b 643 861 432 789 497 861 b 868 785 758 861 833 824 z "}}}
